<svg id="Layer_1" data-name="Layer 1" xmlns="http://www.w3.org/2000/svg" viewBox="0 0 512 490.67"><defs><style>.cls-1{fill:#39d486;}</style></defs><title>github-green</title><path class="cls-1" d="M512,262.23c0,111-73.28,205.33-175.7,238.36-13.12,2.51-17.6-5.36-17.6-11.95,0-8.17.32-35.22.32-68.89,0-23.57-8.32-39-17.28-46.54,57-6.19,116.8-27.46,116.8-124.1,0-27.46-9.92-49.9-26.24-67.5,2.56-6.36,11.2-31.94-2.56-66.58,0,0-21.44-6.74-70.08,25.79a245.47,245.47,0,0,0-128,0c-49-32.53-70.4-25.79-70.4-25.79-13.76,34.64-5.12,60.22-2.24,66.58-16.43,17.6-26.35,40-26.35,67.5,0,96.38,59.76,118,116.61,124.31-7.32,6.29-13.91,17.36-16.21,33.64-14.64,6.42-51.74,17.54-74.56-20.93,0,0-13.51-24.17-39.21-25.92,0,0-25-.32-1.8,15.28,0,0,16.84,7.76,28.48,36.8,0,0,15,48.92,86.23,33.75.11,21,.32,36.8.32,42.77,0,6.68-4.69,14.46-17.49,12.1C73.34,467.67,0,373.4,0,262.23,0,123.31,114.56,10.67,256,10.67S512,123.31,512,262.23Z" transform="translate(0 -10.67)"/></svg>